HIERARCHY
ROOT Hips
{
	OFFSET 0.00 0.00 0.00
	CHANNELS 6 Xposition Yposition Zposition Xrotation Yrotation Zrotation
	JOINT Spine
	{
		OFFSET 0.00000 0.84964 1.27446
		CHANNELS 3 Xrotation Yrotation Zrotation
		JOINT Spine1
		{
			OFFSET 0.00000 0.29508 1.67346
			CHANNELS 3 Xrotation Yrotation Zrotation
			JOINT Spine2
			{
				OFFSET 0.00000 0.14810 1.69281
				CHANNELS 3 Xrotation Yrotation Zrotation
				JOINT Spine3
				{
					OFFSET 0.00000 0.00000 1.69928
					CHANNELS 3 Xrotation Yrotation Zrotation
					JOINT Neck
					{
						OFFSET 0.00000 -0.63723 4.46061
						CHANNELS 3 Xrotation Yrotation Zrotation
						JOINT Head
						{
							OFFSET 0.00000 -0.40573 2.30101
							CHANNELS 3 Xrotation Yrotation Zrotation
							End Site
							{
								OFFSET 0.00000 0.00000 2.75071
							}
						}
					}
					JOINT RightShoulder
					{
						OFFSET -0.72014 -1.20023 3.88874
						CHANNELS 3 Xrotation Yrotation Zrotation
						JOINT RightArm
						{
							OFFSET -3.57668 -0.00000 0.00000
							CHANNELS 3 Xrotation Yrotation Zrotation
							JOINT RightForeArm
							{
								OFFSET -5.92485 -0.00000 0.00000
								CHANNELS 3 Xrotation Yrotation Zrotation
								JOINT RightHand
								{
									OFFSET -6.63013 -0.00000 0.00000
									CHANNELS 3 Xrotation Yrotation Zrotation
									JOINT RightHandEnd
									{
										OFFSET -1.65321 -0.00000 0.00000
										CHANNELS 3 Xrotation Yrotation Zrotation
										End Site
										{
											OFFSET -1.65321 -0.00000 0.00000
										}
									}
									JOINT RightHandThumb1
									{
										OFFSET -0.66129 -1.10214 -0.44086
										CHANNELS 3 Xrotation Yrotation Zrotation
										End Site
										{
											OFFSET -1.59688 -0.42788 0.00000
										}
									}
								}
							}
						}
					}
					JOINT LeftShoulder
					{
						OFFSET 0.72014 -1.20023 3.88874
						CHANNELS 3 Xrotation Yrotation Zrotation
						JOINT LeftArm
						{
							OFFSET 3.57668 0.00000 0.00000
							CHANNELS 3 Xrotation Yrotation Zrotation
							JOINT LeftForeArm
							{
								OFFSET 5.92485 0.00000 0.00000
								CHANNELS 3 Xrotation Yrotation Zrotation
								JOINT LeftHand
								{
									OFFSET 6.63013 0.00000 0.00000
									CHANNELS 3 Xrotation Yrotation Zrotation
									JOINT LeftHandEnd
									{
										OFFSET 1.65321 0.00000 0.00000
										CHANNELS 3 Xrotation Yrotation Zrotation
										End Site
										{
											OFFSET 1.65321 0.00000 0.00000
										}
									}
									JOINT LeftHandThumb1
									{
										OFFSET 0.66129 -1.10214 -0.44086
										CHANNELS 3 Xrotation Yrotation Zrotation
										End Site
										{
											OFFSET 1.59688 -0.42788 0.00000
										}
									}
								}
							}
						}
					}
				}
			}
		}
	}
	JOINT RightUpLeg
	{
		OFFSET -2.13640 0.00000 -0.62412
		CHANNELS 3 Xrotation Yrotation Zrotation
		JOINT RightLeg
		{
			OFFSET 0.00000 0.00000 -11.49360
			CHANNELS 3 Xrotation Yrotation Zrotation
			JOINT RightFoot
			{
				OFFSET 0.00000 0.00000 -8.79036
				CHANNELS 3 Xrotation Yrotation Zrotation
				JOINT RightToeBase
				{
					OFFSET 0.00000 -3.94625 -1.43632
					CHANNELS 3 Xrotation Yrotation Zrotation
					End Site
					{
						OFFSET 0.00000 -1.72833 0.00000
					}
				}
			}
		}
	}
	JOINT LeftUpLeg
	{
		OFFSET 2.13640 0.00000 -0.62412
		CHANNELS 3 Xrotation Yrotation Zrotation
		JOINT LeftLeg
		{
			OFFSET 0.00000 0.00000 -11.49360
			CHANNELS 3 Xrotation Yrotation Zrotation
			JOINT LeftFoot
			{
				OFFSET 0.00000 0.00000 -8.79036
				CHANNELS 3 Xrotation Yrotation Zrotation
				JOINT LeftToeBase
				{
					OFFSET 0.00000 -3.94625 -1.43632
					CHANNELS 3 Xrotation Yrotation Zrotation
					End Site
					{
						OFFSET 0.00000 -1.72833 0.00000
					}
				}
			}
		}
	}
}
MOTION
Frames: 15
Frame Time: 0.008342
 -7.6168 1.4499 22.6481 0.5297 8.2168 -167.3564 16.7787 4.0446 0.1104 4.9021 0.5560 0.6521 -0.1823 12.6099 5.2675 2.2235 10.9390 -6.5604 4.7824 7.6395 -3.9578 -8.7192 -0.5550 -11.6608 2.1536 8.3686 -3.3775 -53.6439 -4.0425 -36.5669 -0.0000 0.0000 101.7692 20.1307 32.6773 -8.7609 0.0000 -0.0000 -0.0000 0.0000 0.0000 -0.0000 -10.6931 11.5993 15.2490 -22.0193 42.8408 38.1661 -0.0000 -0.0000 -96.2377 6.1940 -24.5052 16.7325 -0.0000 0.0000 -0.0000 -0.0000 -0.0000 -0.0000 -4.2187 20.8204 -12.5399 37.9357 0.0000 -0.0000 -29.6201 -3.5055 -11.8183 0.5785 -0.0000 0.0000 -16.4368 -9.8508 7.0315 30.7689 0.0000 0.0000 3.6058 4.3109 -9.2660 -7.2846 -0.0000 0.0000
 -7.8056 1.5136 22.5904 0.6378 8.3421 -167.1109 16.7316 4.2335 0.0944 4.9216 0.6670 0.6609 -0.1526 12.3914 4.8870 2.1071 10.4482 -6.3095 4.8105 7.7832 -4.0771 -8.6954 -0.4771 -11.8935 2.2547 8.3641 -3.7618 -53.2098 -4.5948 -37.2751 -0.0000 0.0000 102.3895 20.2976 32.6260 -8.6469 0.0000 0.0000 -0.0000 0.0000 0.0000 0.0000 -10.7299 12.2544 15.2524 -21.6882 42.4868 37.9028 0.0000 0.0000 -95.3437 6.3370 -24.7701 16.8444 0.0000 -0.0000 0.0000 -0.0000 0.0000 0.0000 -3.8309 21.3827 -12.6105 38.3031 0.0000 0.0000 -30.0833 -3.5228 -12.0190 0.6577 0.0000 0.0000 -16.6531 -10.1019 9.3006 32.6127 0.0000 -0.0000 2.1539 3.6686 -11.8223 -7.5245 0.0000 -0.0000
 -7.9853 1.5790 22.5468 0.6977 8.4229 -166.7388 16.6135 4.3526 0.1059 4.9528 0.7895 0.6401 -0.0980 12.1787 4.4656 2.0131 9.9607 -6.0751 4.8662 8.0029 -4.2304 -8.6580 -0.4193 -12.1448 2.3518 8.3027 -4.1588 -52.8915 -5.1648 -38.1112 -0.0000 0.0000 103.1193 20.3712 32.5473 -8.5147 -0.0000 0.0000 -0.0000 0.0000 -0.0000 -0.0000 -10.8157 12.9149 15.1951 -21.2653 42.0937 37.4598 0.0000 0.0000 -94.3567 6.4832 -25.0832 16.9280 0.0000 0.0000 0.0000 -0.0000 0.0000 -0.0000 -3.3285 21.8647 -12.9244 38.4180 0.0000 -0.0000 -30.3955 -3.4368 -12.1610 0.7542 -0.0000 0.0000 -16.9214 -10.4311 11.4883 34.3004 0.0000 -0.0000 0.9992 2.9871 -14.4432 -7.8055 0.0000 0.0000
 -8.1570 1.6473 22.5179 0.7710 8.4954 -166.3087 16.4889 4.4260 0.1238 4.9849 0.9359 0.6395 -0.0255 11.9472 4.0070 1.9430 9.5000 -5.8580 4.9521 8.3073 -4.4099 -8.6031 -0.3794 -12.3946 2.4476 8.1839 -4.5532 -52.6814 -5.7520 -39.0133 -0.0000 0.0000 103.9138 20.3636 32.4634 -8.3792 -0.0000 0.0000 -0.0000 -0.0000 0.0000 0.0000 -10.9311 13.5630 15.0840 -20.8016 41.6891 36.9155 0.0000 -0.0000 -93.3231 6.6180 -25.4230 16.9718 0.0000 -0.0000 -0.0000 0.0000 -0.0000 -0.0000 -2.6711 22.2921 -13.4351 38.2925 -0.0000 -0.0000 -30.5529 -3.2737 -12.2304 0.8641 -0.0000 0.0000 -17.1188 -10.7626 13.4892 35.7542 -0.0000 -0.0000 0.1233 2.2804 -16.9371 -8.1076 0.0000 0.0000
 -8.3206 1.7175 22.5027 0.8409 8.5291 -165.8643 16.3320 4.4489 0.1518 5.0139 1.0667 0.6232 0.0432 11.7228 3.5798 1.8935 9.0701 -5.6646 5.0649 8.6992 -4.6049 -8.5284 -0.3563 -12.6237 2.5405 8.0109 -4.9210 -52.5599 -6.3493 -39.9311 -0.0000 0.0000 104.7309 20.3002 32.3966 -8.2593 -0.0000 -0.0000 -0.0000 0.0000 0.0000 -0.0000 -11.0613 14.1814 14.9500 -20.3238 41.3058 36.3087 0.0000 -0.0000 -92.2841 6.7257 -25.7731 16.9712 -0.0000 0.0000 0.0000 -0.0000 0.0000 -0.0000 -1.9205 22.6383 -14.0955 37.9530 0.0000 -0.0000 -30.5521 -3.0560 -12.2263 0.9810 -0.0000 0.0000 -17.2600 -11.0767 15.2095 36.9689 0.0000 0.0000 -0.5320 1.5673 -19.1541 -8.4062 -0.0000 -0.0000
 -8.4774 1.7895 22.5001 0.9302 8.5587 -165.4684 16.1767 4.4593 0.1737 5.0341 1.1941 0.6180 0.0913 11.4796 3.1966 1.8608 8.6905 -5.4908 5.2025 9.1731 -4.8068 -8.4385 -0.3479 -12.8148 2.6301 7.7927 -5.2408 -52.5026 -6.9462 -40.8232 -0.0000 0.0000 105.5298 20.2011 32.3582 -8.1659 -0.0000 -0.0000 -0.0000 0.0000 0.0000 -0.0000 -11.1860 14.7551 14.8075 -19.8714 40.9722 35.6997 0.0000 0.0000 -91.2887 6.7924 -26.1171 16.9279 0.0000 -0.0000 -0.0000 -0.0000 -0.0000 -0.0000 -1.0953 22.9418 -14.8452 37.4415 -0.0000 -0.0000 -30.4030 -2.8131 -12.1408 1.0991 -0.0000 0.0000 -17.2863 -11.3081 16.6290 37.9228 -0.0000 -0.0000 -1.0216 0.8700 -20.9822 -8.6765 0.0000 0.0000
 -8.6275 1.8623 22.5084 1.0246 8.5772 -165.1637 16.0125 4.4787 0.1890 5.0393 1.2925 0.6100 0.1047 11.2288 2.8942 1.8390 8.3600 -5.3341 5.3547 9.7227 -5.0078 -8.3370 -0.3539 -12.9547 2.7100 7.5453 -5.4970 -52.4770 -7.5367 -41.6575 -0.0000 0.0000 106.2756 20.0949 32.3574 -8.1109 -0.0000 0.0000 -0.0000 0.0000 0.0000 0.0000 -11.3032 15.2682 14.6783 -19.4602 40.7173 35.1316 -0.0000 0.0000 -90.3778 6.8046 -26.4320 16.8432 -0.0000 0.0000 0.0000 -0.0000 -0.0000 0.0000 -0.2594 23.2076 -15.6330 36.8038 0.0000 -0.0000 -30.1163 -2.5667 -11.9728 1.2113 0.0000 0.0000 -17.2095 -11.4373 17.7301 38.6336 -0.0000 -0.0000 -1.4096 0.2229 -22.3457 -8.8934 0.0000 -0.0000
 -8.7710 1.9351 22.5257 1.1301 8.5811 -164.9859 15.8540 4.5112 0.1967 5.0292 1.3668 0.5965 0.0675 10.9688 2.6939 1.8208 8.0747 -5.1959 5.5108 10.3325 -5.1961 -8.2328 -0.3697 -13.0368 2.7845 7.2829 -5.6801 -52.4582 -8.1151 -42.4056 -0.0000 0.0000 106.9379 20.0128 32.4010 -8.1082 -0.0000 0.0000 0.0000 0.0000 -0.0000 -0.0000 -11.4001 15.7104 14.5780 -19.1134 40.5630 34.6404 -0.0000 0.0000 -89.5879 6.7533 -26.6996 16.7253 0.0000 -0.0000 -0.0000 0.0000 -0.0000 -0.0000 0.5511 23.4408 -16.4170 36.0838 -0.0000 0.0000 -29.7052 -2.3331 -11.7220 1.3108 0.0000 -0.0000 -17.0253 -11.4570 18.5128 39.1271 0.0000 -0.0000 -1.7505 -0.3348 -23.2033 -9.0362 0.0000 -0.0000
 -8.9082 2.0072 22.5505 1.2443 8.5861 -164.9630 15.7099 4.5826 0.1890 5.0044 1.4134 0.5934 -0.0229 10.7054 2.5898 1.7961 7.8280 -5.0650 5.6592 10.9858 -5.3676 -8.1366 -0.3934 -13.0582 2.8541 7.0257 -5.7901 -52.4202 -8.6796 -43.0587 -0.0000 0.0000 107.4955 19.9791 32.4847 -8.1609 -0.0000 -0.0000 0.0000 0.0000 0.0000 0.0000 -11.4720 16.0783 14.5097 -18.8410 40.5201 34.2533 -0.0000 -0.0000 -88.9462 6.6341 -26.9069 16.5860 -0.0000 0.0000 -0.0000 -0.0000 -0.0000 -0.0000 1.2972 23.6712 -17.1601 35.3326 0.0000 -0.0000 -29.1901 -2.1229 -11.3880 1.3911 0.0000 -0.0000 -16.7304 -11.3467 18.9964 39.4232 -0.0000 0.0000 -2.0784 -0.7661 -23.5381 -9.0905 0.0000 -0.0000
 -9.0384 2.0774 22.5804 1.3378 8.5593 -165.0977 15.5502 4.6741 0.1765 4.9701 1.4512 0.5912 -0.1705 10.4153 2.5869 1.7616 7.6180 -4.9404 5.7854 11.6661 -5.5157 -8.0621 -0.4249 -13.0229 2.9182 6.7912 -5.8320 -52.3425 -9.2298 -43.6153 -0.0000 0.0000 107.9331 20.0107 32.6097 -8.2563 -0.0000 0.0000 -0.0000 -0.0000 0.0000 -0.0000 -11.5224 16.3802 14.4831 -18.6355 40.5845 33.9658 0.0000 -0.0000 -88.4653 6.4420 -27.0419 16.4345 -0.0000 -0.0000 -0.0000 0.0000 0.0000 -0.0000 1.9117 23.8797 -17.8375 34.5929 0.0000 -0.0000 -28.5877 -1.9320 -10.9798 1.4481 -0.0000 0.0000 -16.3853 -11.1393 19.1893 39.5710 -0.0000 -0.0000 -2.4220 -1.0426 -23.3673 -9.0495 -0.0000 -0.0000
 -9.1615 2.1457 22.6145 1.4434 8.5111 -165.3900 15.4165 4.7919 0.1566 4.9289 1.4613 0.5946 -0.3704 10.1363 2.6617 1.7079 7.4168 -4.8063 5.8771 12.3534 -5.6338 -8.0193 -0.4586 -12.9396 2.9822 6.5999 -5.8130 -52.2148 -9.7633 -44.0876 -0.0000 0.0000 108.2457 20.1189 32.7603 -8.3918 -0.0000 0.0000 -0.0000 0.0000 -0.0000 -0.0000 -11.5534 16.6206 14.4953 -18.4887 40.7523 33.7762 0.0000 -0.0000 -88.1467 6.1849 -27.1043 16.2878 -0.0000 -0.0000 -0.0000 0.0000 -0.0000 0.0000 2.4203 24.0739 -18.4488 33.8887 0.0000 -0.0000 -27.9134 -1.7536 -10.5000 1.4766 0.0000 0.0000 -15.9660 -10.8430 19.1188 39.5957 -0.0000 0.0000 -2.7894 -1.1507 -22.7330 -8.9153 0.0000 -0.0000
 -9.2769 2.2116 22.6516 1.5497 8.4300 -165.8238 15.2980 4.9213 0.1346 4.8857 1.4611 0.6000 -0.6129 9.8546 2.8080 1.6356 7.2244 -4.6662 5.9227 13.0260 -5.7195 -8.0203 -0.4936 -12.8180 3.0451 6.4573 -5.7483 -52.0292 -10.2794 -44.4850 -0.0000 0.0000 108.4327 20.3055 32.9252 -8.5502 -0.0000 -0.0000 -0.0000 0.0000 -0.0000 -0.0000 -11.5705 16.8102 14.5390 -18.3877 41.0062 33.6655 0.0000 0.0000 -87.9775 5.8711 -27.0972 16.1534 -0.0000 -0.0000 -0.0000 -0.0000 0.0000 -0.0000 2.8013 24.2464 -18.9965 33.2447 -0.0000 0.0000 -27.1825 -1.5721 -9.9550 1.4747 -0.0000 0.0000 -15.5078 -10.4870 18.8222 39.5320 -0.0000 0.0000 -3.1797 -1.0953 -21.7051 -8.6985 0.0000 -0.0000
 -9.3842 2.2747 22.6907 1.6481 8.3096 -166.3703 15.1844 5.0506 0.1138 4.8483 1.4629 0.6117 -0.8841 9.5701 2.9904 1.5434 7.0290 -4.5143 5.9126 13.6654 -5.7646 -8.0748 -0.5258 -12.6726 3.1086 6.3721 -5.6468 -51.7892 -10.7783 -44.8286 -0.0000 0.0000 108.4993 20.5625 33.0979 -8.7085 -0.0000 0.0000 -0.0000 -0.0000 -0.0000 0.0000 -11.5839 16.9666 14.6110 -18.3092 41.3192 33.5990 0.0000 0.0000 -87.9348 5.5130 -27.0298 16.0411 -0.0000 0.0000 -0.0000 -0.0000 0.0000 -0.0000 3.0497 24.3893 -19.4928 32.6748 -0.0000 -0.0000 -26.4093 -1.3679 -9.3575 1.4420 -0.0000 -0.0000 -15.0427 -10.0999 18.3435 39.4092 0.0000 0.0000 -3.5823 -0.8979 -20.3749 -8.4157 -0.0000 0.0000
 -9.4829 2.3348 22.7316 1.7458 8.1534 -167.0002 15.0836 5.1743 0.0989 4.8182 1.4607 0.6192 -1.1670 9.2988 3.1970 1.4334 6.8232 -4.3522 5.8423 14.2552 -5.7712 -8.1886 -0.5547 -12.5130 3.1726 6.3413 -5.5257 -51.5006 -11.2605 -45.1311 -0.0000 0.0000 108.4564 20.8788 33.2667 -8.8486 -0.0000 -0.0000 -0.0000 -0.0000 -0.0000 -0.0000 -11.5965 17.1059 14.6943 -18.2381 41.6618 33.5434 0.0000 -0.0000 -87.9877 5.1275 -26.9188 15.9567 -0.0000 0.0000 -0.0000 -0.0000 -0.0000 -0.0000 3.1881 24.4976 -19.9583 32.1807 0.0000 -0.0000 -25.6045 -1.1224 -8.7180 1.3798 -0.0000 -0.0000 -14.5787 -9.7091 17.7423 39.2463 0.0000 0.0000 -3.9792 -0.5923 -18.8505 -8.0883 -0.0000 -0.0000
 -9.5726 2.3920 22.7742 1.8414 7.9664 -167.6795 14.9931 5.2805 0.0847 4.7986 1.4761 0.6329 -1.4452 9.0316 3.4016 1.3114 6.6083 -4.1861 5.7094 14.7824 -5.7379 -8.3648 -0.5785 -12.3497 3.2362 6.3606 -5.3989 -51.1765 -11.7327 -45.4058 -0.0000 0.0000 108.3184 21.2343 33.4247 -8.9546 -0.0000 -0.0000 -0.0000 0.0000 -0.0000 -0.0000 -11.6198 17.2405 14.7748 -18.1577 42.0039 33.4703 -0.0000 -0.0000 -88.1017 4.7345 -26.7806 15.9020 -0.0000 -0.0000 -0.0000 0.0000 0.0000 0.0000 3.2365 24.5680 -20.4158 31.7576 -0.0000 -0.0000 -24.7771 -0.8200 -8.0501 1.2916 0.0000 0.0000 -14.1294 -9.3396 17.0806 39.0560 -0.0000 0.0000 -4.3465 -0.2184 -17.2441 -7.7387 0.0000 0.0000
